<?xml version="1.0" encoding="UTF-8" standalone="no"?>
<svg
   version="1.1"
   width="31.245094"
   height="30.988268"
   viewBox="84.167 162.152 62.490189 61.976536"
   id="svg45"
   sodipodi:docname="seravault_icon.svg"
   inkscape:version="1.2.2 (b0a8486541, 2022-12-01)"
   xmlns:inkscape="http://www.inkscape.org/namespaces/inkscape"
   xmlns:sodipodi="http://sodipodi.sourceforge.net/DTD/sodipodi-0.dtd"
   xmlns="http://www.w3.org/2000/svg"
   xmlns:svg="http://www.w3.org/2000/svg">
  <defs
     id="defs49">
    <clipPath
       clipPathUnits="userSpaceOnUse"
       id="clipPath309">
      <rect
         style="fill:#000000;stroke-width:2"
         id="rect311"
         width="77.049377"
         height="78.795937"
         x="14.069145"
         y="-22.257708" />
    </clipPath>
    <clipPath
       clipPathUnits="userSpaceOnUse"
       id="clipPath415">
      <rect
         style="fill:#000000;stroke-width:2.11329"
         id="rect417"
         width="66.706169"
         height="65.360413"
         x="101.78793"
         y="159.21474" />
    </clipPath>
  </defs>
  <sodipodi:namedview
     id="namedview47"
     pagecolor="#ffffff"
     bordercolor="#000000"
     borderopacity="0.25"
     inkscape:showpageshadow="2"
     inkscape:pageopacity="0.0"
     inkscape:pagecheckerboard="0"
     inkscape:deskcolor="#d1d1d1"
     showgrid="false"
     inkscape:zoom="5.9357798"
     inkscape:cx="115.06491"
     inkscape:cy="15.667697"
     inkscape:window-width="2560"
     inkscape:window-height="1368"
     inkscape:window-x="0"
     inkscape:window-y="0"
     inkscape:window-maximized="1"
     inkscape:current-layer="svg45" />
  <g
     id="obj_1"
     transform="matrix(0.93679795,0,0,0.95608647,-11.18773,9.4152674)"
     clip-path="url(#clipPath415)"
     inkscape:export-filename="../public/seravault_icon.svg"
     inkscape:export-xdpi="94.476189"
     inkscape:export-ydpi="94.476189">
    <g
       id="obj_3"
       transform="translate(84.167,180.933)"
       opacity="1"
       display="inline">
      <path
         d="m 131.423,31.048 c 0,1.576 -0.158,2.993 -0.473,4.251 -0.315,1.258 -0.732,2.367 -1.25,3.329 -0.517,0.961 -1.125,1.781 -1.82,2.454 -0.697,0.678 -1.416,1.227 -2.162,1.657 -0.743,0.429 -1.499,0.747 -2.267,0.953 -0.769,0.203 -1.494,0.305 -2.174,0.305 L 8.0308526,45.16469 7.133,36.02 h 114.144 c 1.214,0 2.156,-0.449 2.828,-1.352 0.671,-0.897 1.008,-2.103 1.008,-3.62 0,-0.734 -0.09,-1.408 -0.268,-2.024 -0.177,-0.613 -0.432,-1.145 -0.764,-1.596 -0.331,-0.448 -0.737,-0.796 -1.213,-1.041 -0.478,-0.245 -1.009,-0.368 -1.591,-0.368 h -14.515 c -1.018,0 -2.119,-0.23 -3.3,-0.693 -1.181,-0.457 -2.278,-1.2 -3.288,-2.222 -1.012,-1.022 -1.855,-2.364 -2.524,-4.02 -0.671,-1.656 -1.009,-3.683 -1.009,-6.076 0,-2.394 0.338,-4.413 1.009,-6.059 0.669,-1.647 1.512,-2.986 2.524,-4.021 1.01,-1.03 2.107,-1.779 3.288,-2.237 1.181,-0.46 2.282,-0.691 3.3,-0.691 h 21.482 v 7.977 h -21.482 c -1.196,0 -2.131,0.461 -2.804,1.38 -0.671,0.921 -1.007,2.139 -1.007,3.651 0,1.535 0.336,2.745 1.007,3.637 0.673,0.89 1.608,1.334 2.804,1.334 h 14.515 0.049 c 0.679,0.019 1.399,0.137 2.16,0.354 0.761,0.214 1.516,0.546 2.269,0.998 0.752,0.448 1.468,1.017 2.149,1.702 0.679,0.685 1.282,1.508 1.808,2.468 0.526,0.962 0.943,2.067 1.25,3.314 0.307,1.249 0.461,2.658 0.461,4.233 z m 33.86,-5.029 h -19.928 v -8.04 h 19.928 z m 2.84,17.978 h -22.768 c -0.874,0 -1.829,-0.192 -2.864,-0.583 -1.035,-0.389 -1.995,-1.028 -2.877,-1.916 -0.88,-0.892 -1.617,-2.047 -2.21,-3.468 -0.589,-1.421 -0.884,-3.165 -0.884,-5.23 V 4.018 c 0,-0.551 0.082,-1.073 0.243,-1.565 0.162,-0.489 0.385,-0.921 0.667,-1.287 0.283,-0.372 0.619,-0.655 1.008,-0.86 C 138.826,0.101 139.246,0 139.7,0 h 28.423 V 7.977 H 142.829 V 32.8 c 0,1.041 0.22,1.839 0.657,2.392 0.437,0.553 1.077,0.828 1.917,0.828 h 22.72 z m 40.872,-29.209 c 0,1.821 -0.178,3.447 -0.534,4.879 -0.355,1.432 -0.837,2.695 -1.444,3.788 -0.607,1.095 -1.307,2.03 -2.099,2.808 -0.794,0.778 -1.622,1.417 -2.488,1.917 -0.865,0.503 -1.739,0.866 -2.621,1.091 -0.882,0.224 -1.712,0.336 -2.49,0.336 l 13.181,14.39 h -9.759 l -13.153,-14.39 h -4.539 v -7.976 h 14.27 c 0.794,-0.081 1.519,-0.292 2.173,-0.629 0.656,-0.338 1.224,-0.793 1.7,-1.366 0.477,-0.573 0.846,-1.261 1.104,-2.072 0.26,-0.807 0.389,-1.732 0.389,-2.776 v -5.03 c 0,-0.451 -0.045,-0.794 -0.134,-1.029 -0.089,-0.235 -0.202,-0.409 -0.339,-0.522 -0.138,-0.11 -0.284,-0.18 -0.436,-0.198 -0.157,-0.021 -0.297,-0.032 -0.426,-0.032 h -20.826 v 36.02 h -6.31 V 4.018 c 0,-0.551 0.081,-1.073 0.243,-1.565 0.162,-0.489 0.384,-0.921 0.666,-1.287 0.283,-0.372 0.62,-0.655 1.009,-0.86 C 176.52,0.101 176.94,0 177.393,0 h 23.957 c 1.407,0 2.597,0.323 3.568,0.966 0.971,0.645 1.759,1.452 2.366,2.424 0.607,0.971 1.044,2.022 1.31,3.146 0.268,1.123 0.401,2.177 0.401,3.159 z m 40.485,29.209 h -6.31 V 33.198 h -22.185 v 10.799 h -6.31 V 21.998 c 0,-3.211 0.436,-6.166 1.31,-8.867 0.875,-2.698 2.088,-5.02 3.642,-6.964 1.552,-1.944 3.389,-3.457 5.509,-4.541 C 227.257,0.541 229.57,0 232.078,0 h 14.223 c 0.437,0 0.849,0.101 1.237,0.306 0.39,0.205 0.729,0.488 1.02,0.86 0.292,0.366 0.517,0.798 0.68,1.287 0.161,0.492 0.242,1.014 0.242,1.565 z M 220.985,25.221 H 243.17 V 7.977 h -11.092 c -0.194,0 -0.603,0.035 -1.225,0.107 -0.624,0.071 -1.344,0.251 -2.161,0.537 -0.817,0.288 -1.679,0.727 -2.587,1.319 -0.904,0.595 -1.737,1.411 -2.499,2.456 -0.76,1.043 -1.386,2.347 -1.88,3.91 -0.494,1.567 -0.741,3.463 -0.741,5.692 z M 291.639,0 275.161,42.432 c -0.259,0.656 -0.646,1.182 -1.153,1.581 -0.509,0.398 -1.073,0.598 -1.687,0.598 -0.6,0 -1.154,-0.2 -1.664,-0.598 -0.509,-0.399 -0.901,-0.925 -1.176,-1.581 L 253.024,0 h 7.063 L 272.321,31.695 284.602,0 Z m 37.719,43.997 h -6.31 V 33.198 h -22.183 v 10.799 h -6.313 V 21.998 c 0,-3.211 0.438,-6.166 1.311,-8.867 0.874,-2.698 2.089,-5.02 3.642,-6.964 1.552,-1.944 3.389,-3.457 5.509,-4.541 C 307.133,0.541 309.449,0 311.957,0 h 14.223 c 0.436,0 0.849,0.101 1.238,0.306 0.386,0.205 0.727,0.488 1.018,0.86 0.292,0.366 0.519,0.798 0.681,1.287 0.162,0.492 0.241,1.014 0.241,1.565 z M 300.865,25.221 h 22.183 V 7.977 h -11.091 c -0.194,0 -0.602,0.035 -1.227,0.107 -0.622,0.071 -1.342,0.251 -2.16,0.537 -0.817,0.288 -1.678,0.727 -2.585,1.319 -0.906,0.595 -1.74,1.411 -2.501,2.456 -0.76,1.043 -1.386,2.347 -1.88,3.91 -0.493,1.567 -0.739,3.463 -0.739,5.692 z m 69.925,14.757 c 0,0.573 -0.08,1.104 -0.243,1.595 -0.162,0.492 -0.388,0.916 -0.679,1.273 -0.291,0.357 -0.631,0.64 -1.018,0.846 -0.39,0.203 -0.802,0.305 -1.239,0.305 h -14.223 c -1.345,0 -2.702,-0.184 -4.079,-0.55 -1.374,-0.368 -2.706,-0.937 -3.992,-1.705 -1.287,-0.767 -2.496,-1.744 -3.628,-2.93 -1.133,-1.186 -2.125,-2.593 -2.974,-4.219 -0.849,-1.625 -1.516,-3.486 -2.002,-5.584 -0.485,-2.096 -0.727,-4.433 -0.727,-7.011 V 0 h 6.309 v 21.998 c 0,2.25 0.247,4.153 0.74,5.708 0.496,1.553 1.121,2.852 1.883,3.897 0.76,1.041 1.594,1.86 2.499,2.454 0.906,0.592 1.768,1.034 2.585,1.318 0.817,0.287 1.537,0.466 2.16,0.539 0.624,0.07 1.032,0.106 1.226,0.106 h 11.093 V 0 h 6.309 z m 39.295,4.019 H 381.3 c -0.452,0 -0.873,-0.102 -1.262,-0.305 -0.389,-0.206 -0.725,-0.489 -1.007,-0.846 -0.283,-0.357 -0.505,-0.781 -0.667,-1.273 -0.162,-0.491 -0.243,-1.022 -0.243,-1.595 V 0 h 6.311 v 36.02 h 25.653 z m 26.331,-36.02 h -13.908 v 36.711 l -6.31,-0.691 V 7.977 H 402.266 V 0 h 34.15 z"
         fill-opacity="1"
         fill="url(#obj_3_grad_pat_fill)"
         stroke="none"
         stroke-width="1"
         stroke-linecap="square"
         stroke-linejoin="miter"
         filter="url(#obj_3_filter)"
         id="path2"
         sodipodi:nodetypes="ssccccsccscscccsscccscccsccscscscccccccsccccccscccsscccscccsssccsccccccccccccsccsssccscccscccsscccssccccccscccsscccsccccscccccsccccscccccccccccccscccsscccsccccscccccscscscsscccccsccscccccscccscscccscccccccccccccc"
         clip-path="url(#clipPath309)"
         style="fill:url(#obj_3_grad_pat_fill)" />
      <defs
         id="defs20">
        <linearGradient
           spreadMethod="pad"
           x1="11.329604"
           y1="59.06601"
           x2="11.329604"
           y2="-2.980329"
           id="obj_3_grad_pat_fill"
           gradientTransform="scale(1.2418038,0.80528022)"
           gradientUnits="userSpaceOnUse">
          <stop
             offset="0"
             stop-color="#00bf5f"
             stop-opacity="0.99609375"
             id="stop4" />
          <stop
             offset="1"
             stop-color="#00ff7f"
             stop-opacity="0.99609375"
             id="stop6" />
        </linearGradient>
        <filter
           id="obj_3_filter"
           x="-0.0055907173"
           y="-0.053138856"
           width="1.0111814"
           height="1.1062777"
           filterUnits="objectBoundingBox">
          <feGaussianBlur
             in="SourceAlpha"
             stdDeviation="1"
             id="feGaussianBlur9" />
          <feComposite
             result="glowInnerdiff"
             operator="arithmetic"
             in2="SourceAlpha"
             k1="0"
             k2="-1"
             k3="1"
             k4="0"
             id="feComposite11" />
          <feFlood
             flood-color="#007f3f"
             flood-opacity="1"
             id="feFlood13" />
          <feComposite
             operator="in"
             in2="glowInnerdiff"
             id="feComposite15" />
          <feComposite
             result="glowInner"
             operator="over"
             in2="SourceGraphic"
             id="feComposite17" />
        </filter>
      </defs>
    </g>
    <g
       id="obj_12"
       transform="translate(102.767,162.152)"
       opacity="1"
       display="inline">
      <path
         d="M 60.802,18.618 H 4.05 C 2.917,18.618 1.955,18.167 1.171,17.241 0.39,16.323 0,15.226 0,13.945 0,12.668 0.39,11.576 1.171,10.686 1.955,9.793 2.917,9.345 4.05,9.347 L 32.431,0 60.802,9.347 c 1.142,0 2.106,0.446 2.884,1.339 0.787,0.89 1.175,1.982 1.175,3.259 0,1.288 -0.388,2.378 -1.175,3.296 -0.778,0.926 -1.742,1.377 -2.884,1.377 z M 8.904,51.582 C 7.76,51.582 6.799,51.124 6.018,50.202 5.241,49.288 4.843,48.196 4.843,46.944 V 25.917 c 0,-1.304 0.398,-2.403 1.175,-3.293 0.781,-0.896 1.742,-1.337 2.886,-1.337 h 8.101 c 1.141,0 2.103,0.441 2.882,1.337 0.786,0.89 1.177,1.989 1.177,3.293 v 21.027 c 0,1.252 -0.405,2.344 -1.207,3.258 -0.799,0.922 -1.755,1.38 -2.852,1.38 z m 20.268,0 c -1.142,0 -2.103,-0.458 -2.882,-1.38 -0.788,-0.914 -1.176,-2.006 -1.176,-3.258 V 25.917 c 0,-1.304 0.403,-2.403 1.208,-3.293 0.799,-0.896 1.752,-1.337 2.85,-1.337 h 8.105 c 1.139,0 2.101,0.441 2.881,1.337 0.785,0.89 1.175,1.989 1.175,3.293 v 21.027 c 0,1.252 -0.39,2.344 -1.175,3.258 -0.78,0.922 -1.742,1.38 -2.881,1.38 z m 20.264,0 c -1.098,0 -2.045,-0.458 -2.85,-1.38 -0.799,-0.914 -1.2,-2.006 -1.2,-3.258 V 25.917 c 0,-1.304 0.401,-2.403 1.2,-3.293 0.805,-0.896 1.752,-1.337 2.85,-1.337 h 8.111 c 1.141,0 2.1,0.441 2.881,1.337 0.779,0.89 1.167,1.989 1.167,3.293 v 21.027 c 0,1.252 -0.388,2.344 -1.167,3.258 -0.781,0.922 -1.74,1.38 -2.881,1.38 z"
         fill-opacity="1"
         fill="url(#obj_12_grad_pat_fill)"
         stroke="none"
         stroke-width="1"
         stroke-linecap="square"
         stroke-linejoin="miter"
         filter="url(#obj_12_filter)"
         id="path23"
         style="fill:url(#obj_12_grad_pat_fill)" />
      <defs
         id="defs41">
        <linearGradient
           spreadMethod="pad"
           x1="-2.159169"
           y1="60.003086"
           x2="-2.159169"
           y2="-2.6676929"
           id="obj_12_grad_pat_fill"
           gradientTransform="scale(1.1115388,0.89965374)"
           gradientUnits="userSpaceOnUse">
          <stop
             offset="0"
             stop-color="#00bf5f"
             stop-opacity="0.99609375"
             id="stop25" />
          <stop
             offset="1"
             stop-color="#00ff7f"
             stop-opacity="0.99609375"
             id="stop27" />
        </linearGradient>
        <filter
           id="obj_12_filter"
           x="-0.037002206"
           y="-0.046527859"
           width="1.0740044"
           height="1.0930557"
           filterUnits="objectBoundingBox">
          <feGaussianBlur
             in="SourceAlpha"
             stdDeviation="1"
             id="feGaussianBlur30" />
          <feComposite
             result="glowInnerdiff"
             operator="arithmetic"
             in2="SourceAlpha"
             k1="0"
             k2="-1"
             k3="1"
             k4="0"
             id="feComposite32" />
          <feFlood
             flood-color="#007f3f"
             flood-opacity="1"
             id="feFlood34" />
          <feComposite
             operator="in"
             in2="glowInnerdiff"
             id="feComposite36" />
          <feComposite
             result="glowInner"
             operator="over"
             in2="SourceGraphic"
             id="feComposite38" />
        </filter>
      </defs>
    </g>
  </g>
</svg>
